<svg id="Layer_1" data-name="Layer 1" xmlns="http://www.w3.org/2000/svg" xmlns:xlink="http://www.w3.org/1999/xlink" viewBox="0 0 240 60"><defs><style>.cls-1{fill:url(#linear-gradient);}</style><linearGradient id="linear-gradient" y1="30" x2="240" y2="30" gradientUnits="userSpaceOnUse"><stop offset="0" stop-color="#50b848"/><stop offset="0.09" stop-color="#67be43"/><stop offset="0.27" stop-color="#8fc93c"/><stop offset="0.41" stop-color="#a7d037"/><stop offset="0.5" stop-color="#b0d235"/><stop offset="0.59" stop-color="#a7d037"/><stop offset="0.73" stop-color="#8fc93c"/><stop offset="0.9" stop-color="#67be43"/><stop offset="0.99" stop-color="#50b848"/></linearGradient></defs><path class="cls-1" d="M238.82,19.34a3.57,3.57,0,0,0-2.89-1.49,11.43,11.43,0,0,0-5.79,1.9,55.14,55.14,0,0,0-7,5.88c.76-2.37,1.22-3.87,1.36-4.5a8,8,0,0,0,.22-1.85,1.36,1.36,0,0,0-.49-1.14,2.12,2.12,0,0,0-1.33-.38,11.64,11.64,0,0,0-5.25,1.61,23.44,23.44,0,0,0-6.09,5l1.32,1.25.05-.05-4.07,12.09q-4.28,3.7-5.34,3.7a.67.67,0,0,1-.5-.29,1.13,1.13,0,0,1-.24-.73q0-2.28,3.56-13.32a54.45,54.45,0,0,0,2.18-7.66,1.41,1.41,0,0,0-.57-1.18,2.48,2.48,0,0,0-1.41-.43V15h.11c1.36-.16,3.9-.85,4.15-3.79.32-3.59-4.48-3.73-6.07-1-1.78,3.12.26,4.84,1.8,4.76v2.79h-.23a10.7,10.7,0,0,0-4.72,1.44,25.81,25.81,0,0,0-6.06,4.8l-.07.07h-2l0-.25c0-.36,0-.72,0-1.09A14.41,14.41,0,0,0,188,11.21a18.48,18.48,0,0,0-6.71-3.52,33.22,33.22,0,0,0-11.87-.92h.3a30.46,30.46,0,0,0-10.2,2.8,23.94,23.94,0,0,0-9.61,8,18,18,0,0,0-3.45,10.35,10.29,10.29,0,0,0,2.3,6.25,4.9,4.9,0,0,0,3.14,2.16l-21.72,2.28-1-1.17a21.66,21.66,0,0,1-4,2.86,4.23,4.23,0,0,1-1.72.66c-.56,0-.84-.33-.84-1a27.17,27.17,0,0,1,.74-4.29q1.35-6.13,2.86-10.83L128.66,17l-2.22.43-.81,1.22a18.07,18.07,0,0,0-2.18-.13,17.89,17.89,0,0,0-7,1.18,19.6,19.6,0,0,0-4.24,2.6l-6-2.43h0a1.84,1.84,0,0,0,.66-1.43,1.87,1.87,0,0,0-.68-1.42,2.42,2.42,0,0,0-1.68-.6A6,6,0,0,0,101.06,18a41,41,0,0,0-7.69,8.5l1.47-5.6a13.94,13.94,0,0,0,.44-2.16.82.82,0,0,0-.35-.67,1.63,1.63,0,0,0-1-.26A12.29,12.29,0,0,0,89,19.45,24.79,24.79,0,0,0,82.83,24H79.75A5.69,5.69,0,0,0,80.14,22a3.84,3.84,0,0,0-1.26-3,5.41,5.41,0,0,0-3.65-1.1,11.57,11.57,0,0,0-3.85.65h0A12,12,0,0,0,69,19.66l1.56,1.07-1,.93-1.72-1.19c-.28.22-.56.45-.84.7l-.14.14,1.76,1.22-1,.93-1.73-1.2c-.3.32-.59.66-.88,1l1.6,1.11-1,.93-1.42-1c-.23.32-.46.66-.69,1A23.78,23.78,0,0,0,59.11,38.6a12.32,12.32,0,0,0,.06,1.25L54.9,42.31l-.74-1.42c-1.25.8-5.94,2.8-5-2.37a29,29,0,0,1,.72-2.89l2-5.89a22.54,22.54,0,0,0,1.17-5.89,5.22,5.22,0,0,0-1.21-3.26,6.71,6.71,0,0,0-3.49-2.16,8.27,8.27,0,0,0-3.84-.19,12.15,12.15,0,0,0-4.84,1.93c.32-1.39,2.81-10.8,2.81-10.8L38.59,6.63h0l-.05,0,0,0h0L29.33.22h2.35l9.26,6.41h2.34L34,.22h2.35l9.25,6.41h2.19L38.56.22h2.35l9.26,6.41h2.07l-4.4-3.06h0l-.95-.66L42.71,0H40.59l.31.22H38.55L38.24,0H36.05l.32.22H34L33.7,0H32.48l-1.1,0,.29.2H29.32l-.1-.07C12.82,1.64,0,14.44,0,30H0C0,46.56,14.5,60,32.4,60h9.53l29.43,0,44.27,0-.19-.14h2.35l.19.14h2.34l-.18-.13h2.34l.19.13h2.18l-.18-.13H127l.18.13h2.13L124,56.18H124l-3.82-2.7h-2.32L127,59.8h-2.35l-9.13-6.32h-2.19l9.13,6.32h-2.34L111,53.47h-2.35l9.14,6.33h-2.35l-9.15-6.33-34.92,0-37.82,0c-8.74,0-15.35-3.86-19.06-9.91h0l-.07-.12h0a24.31,24.31,0,0,1-3.33-12.68c0-12.93,8.55-24.09,22.53-24.07h.1v0h4.81c-.07,1.45-7.81,29.31-9.62,35.73l-1.6.07a.92.92,0,0,0-.83.62l-.21.63h2.26l4.4.09L39.08,22.6a17.09,17.09,0,0,1,4.58-2,2.86,2.86,0,0,1,2.16.07,3.74,3.74,0,0,1,2.8,2.74A9.26,9.26,0,0,1,48,27.68l-2.64,6.46a18.1,18.1,0,0,0-1.17,4.34,11,11,0,0,0-.09,2.67,6.28,6.28,0,0,0,.95,2.48c2.21,2.94,8.83-.5,9.84-1.29l0,0,4.27-2.47a6.17,6.17,0,0,0,1.21,3.55A4.51,4.51,0,0,0,64,44.89q5.88,0,14.13-7.25l-1.11-1.37a43.1,43.1,0,0,1-6.5,3.92,7.56,7.56,0,0,1-3,.72A2.78,2.78,0,0,1,65.32,40,4.83,4.83,0,0,1,64.57,37a18.25,18.25,0,0,1,.3-3.2q5.73-2.4,7.89-3.47L71,29l1.09-.88,2,1.4c.44-.25.86-.51,1.25-.76l-2.19-1.51,1.08-.88L76.5,28c.36-.28.7-.55,1-.82L75.23,25.6l1.08-.88,2.14,1.48.18-.23A7.79,7.79,0,0,0,79.74,24h3.08c-.07.08-.15.15-.22.22l1,1.09a31.5,31.5,0,0,1,3.77-3.16A3.48,3.48,0,0,1,89,21.55a.66.66,0,0,1,.74.75A11.49,11.49,0,0,1,89.4,24c-.62,2.67-1.31,5.44-2.08,8.33l4,2.76-1.13.84L87,33.71c-.11.42-.23.84-.35,1.27l2.52,1.74L88,37.56l-1.77-1.22-.38,1.36,1,.7-1.13.84-.26-.18-.13.47h0l-1.27,4.54h5l.54-2.15-3.88-2.69,1.14-.84L90,40.54l.35-1.38L88,37.56l1.14-.83,1.52,1c.11-.44.22-.87.32-1.28l-.78-.55,1.13-.84h0v0h0a39.23,39.23,0,0,1,1.5-4.77,17.3,17.3,0,0,1,2.61-3.9,18,18,0,0,1,3.42-3.33,14.93,14.93,0,0,1,4.06-1.87,10.62,10.62,0,0,0,3.25-1.38l6,2.42a25.74,25.74,0,0,0-2.48,2.26,27,27,0,0,0-5.1,7.34,17.49,17.49,0,0,0-1.9,7.34,6.84,6.84,0,0,0,1.41,4.49,3.66,3.66,0,0,0,3,1.27,9.15,9.15,0,0,0,4.51-1.43A27.63,27.63,0,0,0,118.53,38l-1.34,4.23a4.36,4.36,0,0,0-.27,1.28,1.36,1.36,0,0,0,.44,1.09,2,2,0,0,0,1.31.37,7.68,7.68,0,0,0,2.49-.43,18.75,18.75,0,0,0,4.1-2q1.08-.68,4.92-3.92l0,0,21.74-2.29.31,0a2,2,0,0,0,.72-.13h0a2.1,2.1,0,0,0,.69-.43,1.77,1.77,0,0,0,.63-1.33,1.57,1.57,0,0,0-.32-1,4.66,4.66,0,0,0-1.4-1,6.14,6.14,0,0,1-3.76-5.85,14.48,14.48,0,0,1,3.07-8.38,22.06,22.06,0,0,1,8.36-6.93,25,25,0,0,1,11.22-2.61q7.06,0,11.43,4.22T187.23,24a18.75,18.75,0,0,1-2.57,9.68,17.12,17.12,0,0,1-6.94,6.67,21.74,21.74,0,0,1-10.25,2.29,29.07,29.07,0,0,1-5.11-.53q3-4.78,5.38-14.19L170,19.28a54.69,54.69,0,0,1,2.56-7.84,65.64,65.64,0,0,1-8.65,1.37l-.33,1.34a7.59,7.59,0,0,1,.94-.1,1.36,1.36,0,0,1,.94.3,1,1,0,0,1,.34.79,4.9,4.9,0,0,1-.21,1.28l-2.69,10.14-2.31,8.12a32.84,32.84,0,0,1-2.66,6.23,3.12,3.12,0,0,1-1.29,1.15,14.48,14.48,0,0,1-3.85.5L152,44.08c2.06-.06,3.6-.09,4.61-.09q3.25,0,6.89.25c2.87.2,4.89.31,6.05.31a27.82,27.82,0,0,0,10.84-2.29,21.64,21.64,0,0,0,9.27-7.69,20,20,0,0,0,3.76-10.11l0-.39h2l1.48,1.06A33.69,33.69,0,0,1,200.72,22a3,3,0,0,1,1.53-.5.54.54,0,0,1,.6.62,4.4,4.4,0,0,1-.23,1.28q-5.06,15.12-5.05,19A2.37,2.37,0,0,0,200.13,45a7.86,7.86,0,0,0,3.46-1.12,43.25,43.25,0,0,0,6.73-5.13L209,37.51l-.17.15,4.07-12.09q4.13-4,5.59-4,.84,0,.84.81a68.88,68.88,0,0,1-1.72,7.35L212.87,48.2c-.6,2.34-1.69,6.85-2.21,9l-1.17.16a1.36,1.36,0,0,0-1.17,1.2l2.05-.15s5.16-.29,5.06.15l3.42-14.83A10.73,10.73,0,0,0,223.69,45q6.15,0,11.23-6.78A23.5,23.5,0,0,0,240,23.85,7.19,7.19,0,0,0,238.82,19.34ZM75.22,25.59l-.48-.33a7.56,7.56,0,0,1-.71,1l.19.13-1.09.87,0,0c-.34.3-.7.59-1.08.88l0,0L71,29l-.15-.1a34,34,0,0,1-5.55,2.83,29.57,29.57,0,0,1,1.59-5.57l-1.26-.87,1-.93.78.55a1,1,0,0,0,.07-.15A9.58,9.58,0,0,1,68,23.73l-.4-.27,1-.93.14.1a6.88,6.88,0,0,1,.86-.92l-.07,0,1-.93.21.15a3.71,3.71,0,0,1,1.77-.46,2.64,2.64,0,0,1,2,.79,3,3,0,0,1,.75,2.14,3,3,0,0,1-.05.6l1.1.76Zm44.26,6.26a13.48,13.48,0,0,1-3.91,6.68,7.85,7.85,0,0,1-5,2.31,2.48,2.48,0,0,1-2-.93,4.75,4.75,0,0,1-.78-3,18.22,18.22,0,0,1,1.94-8,13.81,13.81,0,0,1,4.19-5.54,9.09,9.09,0,0,1,5.28-1.54,16.8,16.8,0,0,1,3.06.34ZM232.18,37q-3,5.82-7.07,5.82a8.06,8.06,0,0,1-5.45-2.45l1.8-6.76a17.86,17.86,0,0,1,2.21-5.6,21.78,21.78,0,0,1,4.77-4.51A6.35,6.35,0,0,1,232.07,22a3,3,0,0,1,2.3.92,3.79,3.79,0,0,1,.85,2.69A24.35,24.35,0,0,1,232.18,37Z"/></svg>