<svg id="Layer_1" data-name="Layer 1" xmlns="http://www.w3.org/2000/svg" viewBox="0 0 28 25.56"><defs><style>.cls-1{fill:#50b848;stroke:#231f20;stroke-miterlimit:10;stroke-width:0.1px;}</style></defs><path class="cls-1" d="M7.28,7a3.25,3.25,0,0,0,3.08-2.22H26.6a1,1,0,0,0,1-1V3.63a1,1,0,0,0-1-1H10.36a3.25,3.25,0,0,0-6.16,0H1.37a.87.87,0,0,0-.87.87V3.9a.87.87,0,0,0,.87.87H4.2A3.25,3.25,0,0,0,7.28,7Zm1-3.27a1,1,0,1,1-1-1.05A1,1,0,0,1,8.33,3.72Z"/><path class="cls-1" d="M23.8,11.74a3.25,3.25,0,0,0-6.16,0H1.4a.89.89,0,0,0-.89.89V13a.89.89,0,0,0,.89.89H17.64a3.25,3.25,0,0,0,6.16,0h2.89a.87.87,0,0,0,.88-.88v-.34a.87.87,0,0,0-.88-.88Zm-3.08,0h0a1,1,0,0,1,1,.91.7.7,0,0,1,0,.14,1.05,1.05,0,0,1-2.1,0,.7.7,0,0,1,0-.14,1,1,0,0,1,1-.91Z"/><path class="cls-1" d="M11.83,18.59a3.26,3.26,0,0,0-3.09,2.22H1.37a.85.85,0,0,0-.86.85v.4a.85.85,0,0,0,.86.85H8.74a3.25,3.25,0,0,0,6.17,0h11.8a.85.85,0,0,0,.86-.85v-.4a.85.85,0,0,0-.86-.85H14.91A3.26,3.26,0,0,0,11.83,18.59Zm1.05,3.27a1.05,1.05,0,1,1-1.05-1.05A1,1,0,0,1,12.88,21.86Z"/></svg>