<?xml version="1.0" encoding="UTF-8"?>
<svg id="Layer_1" data-name="Layer 1" xmlns="http://www.w3.org/2000/svg" xmlns:xlink="http://www.w3.org/1999/xlink" viewBox="0 0 1272.353 532.1362">
  <defs>
    <style>
      .cls-1 {
        fill: #fedf31;
      }

      .cls-1, .cls-2, .cls-3, .cls-4, .cls-5, .cls-6, .cls-7, .cls-8, .cls-9, .cls-10, .cls-11, .cls-12, .cls-13, .cls-14, .cls-15, .cls-16 {
        stroke-width: 0px;
      }

      .cls-2 {
        fill: #fed700;
      }

      .cls-3, .cls-6, .cls-11 {
        fill: #fff;
      }

      .cls-4 {
        fill: url(#linear-gradient-2);
      }

      .cls-5 {
        fill: #ffef99;
      }

      .cls-6, .cls-8, .cls-14 {
        fill-rule: evenodd;
      }

      .cls-7 {
        fill: url(#linear-gradient-3);
      }

      .cls-8 {
        fill: url(#linear-gradient-5);
      }

      .cls-9, .cls-10, .cls-11, .cls-15 {
        opacity: .96;
      }

      .cls-9, .cls-12 {
        fill: #afd136;
      }

      .cls-10 {
        fill: url(#linear-gradient-4);
      }

      .cls-13 {
        fill: #fff7cd;
      }

      .cls-14 {
        fill: url(#linear-gradient-6);
      }

      .cls-15 {
        fill: url(#linear-gradient);
      }

      .cls-16 {
        fill: #fee667;
      }
    </style>
    <linearGradient id="linear-gradient" x1="652.9086" y1="220.9594" x2="809.6339" y2="220.9594" gradientUnits="userSpaceOnUse">
      <stop offset="0" stop-color="#fff"/>
      <stop offset=".51" stop-color="#afd136"/>
      <stop offset=".9749" stop-color="#fed700"/>
    </linearGradient>
    <linearGradient id="linear-gradient-2" x1="851.6528" y1="220.9594" x2="1014.022" y2="220.9594" gradientUnits="userSpaceOnUse">
      <stop offset="0" stop-color="#fff"/>
      <stop offset=".5" stop-color="#afd136"/>
      <stop offset=".9749" stop-color="#fed700"/>
    </linearGradient>
    <linearGradient id="linear-gradient-3" x1="1061.4609" y1="221.4091" x2="1272.353" y2="221.4091" gradientUnits="userSpaceOnUse">
      <stop offset="0" stop-color="#fff"/>
      <stop offset=".5" stop-color="#afd136"/>
      <stop offset=".9749" stop-color="#fed700"/>
    </linearGradient>
    <linearGradient id="linear-gradient-4" x1="648.901" y1="435.9155" x2="705.8872" y2="435.9155" gradientUnits="userSpaceOnUse">
      <stop offset="0" stop-color="#fff"/>
      <stop offset="1" stop-color="#fed700"/>
    </linearGradient>
    <linearGradient id="linear-gradient-5" x1="106.822" y1="288.9503" x2="522.2167" y2="288.9503" gradientUnits="userSpaceOnUse">
      <stop offset="0" stop-color="#fed700"/>
      <stop offset="1" stop-color="#afd136" stop-opacity=".96"/>
    </linearGradient>
    <linearGradient id="linear-gradient-6" x1="116.2166" y1="279.4204" x2="501.763" y2="279.4204" gradientUnits="userSpaceOnUse">
      <stop offset="0" stop-color="#fed700"/>
      <stop offset="1" stop-color="#afd136" stop-opacity=".96"/>
    </linearGradient>
  </defs>
  <path class="cls-15" d="M809.6339,313.74c0,.8017-.2181,1.525-.6499,2.1734-.4351.6518-1.2707,1.1764-2.5069,1.5738-1.2394.4009-2.9106.7233-5.0137.9743-2.1063.2475-4.828.3747-8.1705.3747-4.3346,0-7.8628-.1499-10.5845-.4497-2.7249-.2998-4.7676-.847-6.1279-1.6488-1.3636-.7982-2.4777-1.6976-3.3425-2.698l-88.3901-96.9774v96.9774c0,.7006-.2494,1.3751-.7428,2.0235-.4966.6518-1.3636,1.1503-2.5997,1.4989-1.2394.3521-2.8782.6484-4.9209.8993-2.0426.2475-4.6132.3747-7.7063.3747-2.9711,0-5.5103-.1272-7.6134-.3747-2.1063-.251-3.7776-.5473-5.0137-.8993-1.2394-.3486-2.1063-.847-2.5997-1.4989-.4966-.6484-.7428-1.3228-.7428-2.0235V127.8791c0-.7982.2462-1.4989.7428-2.0984.4934-.5996,1.3603-1.0727,2.5997-1.4239,1.2362-.3486,2.9074-.6484,5.0137-.8993,2.1031-.2484,4.6423-.3747,7.6134-.3747,3.0931,0,5.6637.1264,7.7063.3747,2.0426.251,3.6815.5508,4.9209.8993,1.2362.3512,2.1031.8244,2.5997,1.4239.4934.5996.7428,1.3002.7428,2.0984v86.1855l85.0476-86.1855c.7428-.8993,1.6075-1.6488,2.5997-2.2483.9889-.5996,2.1959-1.0727,3.621-1.4239,1.4219-.3486,3.1568-.6231,5.1994-.8244,2.0426-.1987,4.6715-.2998,7.892-.2998,3.2172,0,5.817.1264,7.7991.3747,1.9789.251,3.5573.576,4.7352.9743,1.1746.4009,1.9789.8993,2.414,1.4989.4318.5996.6499,1.2505.6499,1.9485,0,1.3002-.4038,2.5995-1.207,3.8971-.8065,1.3002-2.3212,3.0988-4.5495,5.396l-79.6625,76.8924,85.7904,92.0311c2.1031,2.6004,3.3716,4.3729,3.8067,5.321.4318.9516.6499,1.7237.6499,2.3233Z"/>
  <path class="cls-4" d="M1014.022,262.3285c0,6.0966-.985,11.7174-2.9504,16.8624-1.9699,5.1476-4.73,9.7689-8.2803,13.8646-3.5547,4.0984-7.8376,7.6957-12.8487,10.7919-5.0155,3.0988-10.6596,5.6957-16.9412,7.7942-6.2816,2.0984-13.0103,3.6723-20.1772,4.7215-7.1714,1.0492-15.3896,1.5738-24.6504,1.5738h-64.3386c-2.9206,0-5.6806-.7721-8.2803-2.3233-2.6029-1.5477-3.9022-4.2718-3.9022-8.1689v-172.9705c0-3.8971,1.2993-6.6186,3.9022-8.1689,2.5996-1.5477,5.3597-2.3233,8.2803-2.3233h55.9631c14.719,0,26.7731,1.1006,36.1666,3.2975,9.3892,2.1995,17.2267,5.396,23.5083,9.5928,6.2816,4.1969,11.0071,9.3445,14.1811,15.4384,3.1696,6.0966,4.7588,12.9914,4.7588,20.6845,0,4.5977-.6994,8.9933-2.0939,13.1901-1.3989,4.1969-3.4595,8.0704-6.1864,11.6163-2.7313,3.5485-6.1576,6.7214-10.2789,9.5179-4.1257,2.7991-8.8513,5.0962-14.1811,6.8948,6.7243,1.0004,13.0058,2.8243,18.8447,5.4709,5.8345,2.6492,10.9452,6.0217,15.3232,10.1174,4.3781,4.0984,7.8332,8.8948,10.3741,14.3892,2.5365,5.497,3.807,11.5414,3.807,18.1364ZM964.7212,175.5434c0-4.6953-.8234-8.9419-2.4679-12.7405-1.649-3.796-4.2431-7.0186-7.7867-9.6678-3.5458-2.6466-8.1674-4.6701-13.8624-6.0705-5.6995-1.3978-13.2294-2.0984-22.5986-2.0984h-33.8028v62.803h37.2202c8.4817,0,15.3166-.8732,20.5092-2.623,5.1904-1.7472,9.4932-4.0958,12.9151-7.0447,3.4175-2.9463,5.9186-6.3938,7.5011-10.3423,1.5826-3.9459,2.3727-8.019,2.3727-12.2159ZM979.5685,263.8274c0-5.7942-1.1709-10.8904-3.5148-15.2886-2.344-4.3955-5.7614-8.0939-10.259-11.0917s-10.1329-5.2696-16.908-6.8199c-6.7752-1.5477-15.2945-2.3233-25.5491-2.3233h-39.1348v68.3488h47.4925c7.4702,0,13.993-.698,19.5685-2.0984,5.5689-1.3978,10.4781-3.4709,14.7212-6.2203,4.2408-2.7468,7.5675-6.1689,9.9735-10.2673,2.4059-4.0958,3.61-8.8434,3.61-14.2393Z"/>
  <path class="cls-7" d="M1272.353,314.0398c0,.8017-.2057,1.4989-.6187,2.0984-.4113.5996-1.1311,1.0754-2.1612,1.4239-1.03.3521-2.3424.6484-3.9372.8993-1.5947.2475-3.6792.3747-6.25.3747-2.3686,0-4.4008-.1272-6.0983-.3747-1.6993-.251-3.0361-.5473-4.0156-.8993-.9778-.3486-1.6714-.8244-2.0845-1.4239-.4113-.5996-.6152-1.2967-.6152-2.0984v-168.9236h-.2998l-68.3488,169.673c-.2998.7006-.7268,1.3002-1.274,1.7987-.5508.5019-1.349.9255-2.3982,1.274s-2.3006.5996-3.7472.7494c-1.4501.1499-3.1738.2248-5.1711.2248-2.0984,0-3.8971-.1011-5.396-.2998-1.4989-.2022-2.7503-.4758-3.7472-.8244-1.0004-.3486-1.776-.7721-2.3233-1.274-.5508-.4985-.9255-1.0492-1.1242-1.6488l-65.3511-169.673h-.1499v168.9236c0,.8017-.2057,1.4989-.6187,2.0984-.4113.5996-1.1311,1.0754-2.1612,1.4239-1.03.3521-2.3686.6484-4.0139.8993-1.647.2475-3.7577.3747-6.3284.3747-2.4714,0-4.5297-.1272-6.175-.3747-1.647-.251-2.9594-.5473-3.9372-.8993-.9795-.3486-1.647-.8244-2.0078-1.4239s-.5386-1.2967-.5386-2.0984v-178.3665c0-4.1969,1.1154-7.1946,3.3463-8.9933,2.2326-1.7987,4.7197-2.698,7.4595-2.698h15.8288c3.247,0,6.0879.2998,8.5227.8993,2.4365.5996,4.5646,1.5503,6.3911,2.8479,1.8283,1.3002,3.3498,2.949,4.5681,4.9463,1.2183,2,2.2832,4.3467,3.1964,7.0447l55.4585,140.4449h.7494l57.7068-139.9952c1.1154-2.9978,2.332-5.5458,3.6531-7.6443,1.3211-2.0984,2.7694-3.7707,4.3433-5.0212,1.5738-1.2479,3.3219-2.1472,5.253-2.698,1.9276-.5481,4.1603-.8244,6.6996-.8244h16.5975c1.5233,0,2.9699.2248,4.3398.6745s2.5394,1.1503,3.5032,2.0984c.9656.9507,1.7533,2.1498,2.3616,3.5973.6083,1.4501.9133,3.2226.9133,5.321v178.3665Z"/>
  <g>
    <path class="cls-3" d="M874.1306,444.8286c0,6.5672-.8947,12.486-2.6812,17.7565-1.7875,5.2705-4.4566,9.7567-8.0074,13.4585-3.5508,3.7019-8.0074,6.5463-13.3698,8.5331-5.3624,1.9869-11.6195,2.9803-18.7684,2.9803-7.0542,0-13.1524-.9098-18.2974-2.7294-5.145-1.8196-9.3963-4.4653-12.7538-7.9371-3.3585-3.4718-5.8586-7.7802-7.5001-12.9252-1.6425-5.145-2.4638-11.0638-2.4638-17.7565,0-6.3999.8937-12.2132,2.6812-17.4428,1.7865-5.2286,4.4677-9.6721,8.0436-13.333,3.5749-3.6601,8.0436-6.4835,13.406-8.4704,5.3624-1.986,11.6185-2.9803,18.7684-2.9803,6.9083,0,12.9229.9002,18.0437,2.698,5.1198,1.7987,9.3842,4.4234,12.79,7.8743,3.4058,3.4509,5.9421,7.7175,7.6088,12.7997,1.6667,5.0822,2.5,10.9078,2.5,17.4741ZM860.942,445.5816c0-4.6012-.471-8.8782-1.4121-12.8311-.941-3.9529-2.5091-7.382-4.7042-10.29-2.1961-2.9071-5.1269-5.1764-8.7934-6.8077-3.6665-1.6313-8.2026-2.447-13.6053-2.447s-9.9398.8784-13.6063,2.6352c-3.6675,1.7568-6.6466,4.1001-8.9383,7.0273-2.2917,2.928-3.9322,6.3476-4.9216,10.2586-.9904,3.9119-1.4835,8.0216-1.4835,12.3291,0,4.7685.4569,9.1606,1.3748,13.1762.9169,4.0156,2.4598,7.477,4.6317,10.3841,2.1719,2.908,5.0786,5.1668,8.7219,6.7763,3.6424,1.6104,8.2137,2.4156,13.714,2.4156,5.452,0,10.0354-.8784,13.7512-2.6352,3.7148-1.7568,6.706-4.1306,8.9746-7.1214,2.2665-2.9899,3.8839-6.4521,4.8481-10.3841.9652-3.9311,1.4483-8.0939,1.4483-12.486Z"/>
    <path class="cls-13" d="M950.3051,481.6592c0,.8366-.0483,1.5372-.1449,2.1019-.0976.5647-.2536,1.0457-.471,1.4431s-.4831.6902-.7971.8784c-.315.1882-.6884.2823-1.1232.2823h-41.4498c-1.1121,0-2.1629-.3242-3.1522-.9725-.9904-.6484-1.4855-1.7882-1.4855-3.4195v-75.167c0-.3346.0966-.6274.2899-.8784.1922-.251.5314-.4488,1.0145-.5961.4821-.1464,1.1343-.2719,1.9565-.3765.8213-.1037,1.8116-.1569,2.9711-.1569,1.2067,0,2.2102.0532,3.0073.1569.7971.1046,1.4372.2301,1.9203.3765.4821.1473.8213.3451,1.0145.5961.1922.251.2899.5438.2899.8784v70.2102h33.6237c.4348,0,.8082.0941,1.1232.2823.314.1882.5797.461.7971.8157.2174.3555.3734.8261.471,1.4117.0966.5856.1449,1.2967.1449,2.1333Z"/>
  </g>
  <path class="cls-5" d="M1024.5384,482.6592c0,.8366-.0483,1.5372-.1449,2.1019s-.2536,1.0457-.471,1.4431-.4831.6902-.7971.8784-.6884.2823-1.1232.2823h-41.4498c-1.1111,0-2.1619-.3242-3.1522-.9725s-1.4855-1.7882-1.4855-3.4195v-75.167c0-.3346.0966-.6274.2899-.8784s.5314-.4488,1.0145-.5961c.4831-.1464,1.1353-.2719,1.9565-.3765.8213-.1037,1.8116-.1569,2.9711-.1569,1.2077,0,2.2102.0532,3.0073.1569.7971.1046,1.4372.2301,1.9203.3765.4831.1473.8213.3451,1.0145.5961s.2899.5438.2899.8784v70.2102h33.6237c.4348,0,.8092.0941,1.1232.2823s.5797.461.7971.8157c.2174.3555.3744.8261.471,1.4117s.1449,1.2967.1449,2.1333Z"/>
  <path class="cls-16" d="M1099.3226,481.9102c0,.7529-.0483,1.4117-.1449,1.9764s-.2657,1.0353-.5073,1.4117-.5193.6484-.8333.8157-.6643.251-1.0507.251h-45.0006c-1.1111,0-2.1619-.3242-3.1522-.9725s-1.4855-1.7882-1.4855-3.4195v-72.4063c0-1.6313.4952-2.7703,1.4855-3.4195.9904-.6484,2.0411-.9725,3.1522-.9725h44.4934c.3865,0,.7367.0845,1.0507.251.314.1673.5676.4392.7609.8157.1932.3765.3502.847.471,1.4117s.1812,1.2653.1812,2.1019c0,.7529-.0604,1.4117-.1812,1.9764s-.2778,1.0257-.471,1.3804c-.1932.3555-.4469.6179-.7609.7843-.314.1673-.6643.251-1.0507.251h-36.6672v25.474h31.4497c.3865,0,.7367.0941,1.0507.2823s.5797.4497.7971.7843c.2174.3355.3744.7948.471,1.3804.0966.5865.1449,1.2767.1449,2.0705,0,.7529-.0483,1.4021-.1449,1.9451-.0966.5438-.2536.983-.471,1.3176-.2174.3355-.4831.5752-.7971.7216-.314.1473-.6643.2196-1.0507.2196h-31.4497v29.0503h37.1744c.3865,0,.7367.0845,1.0507.251.314.1673.5918.4296.8333.7843.2415.3555.4106.8157.5073,1.3804s.1449,1.2653.1449,2.1019Z"/>
  <path class="cls-2" d="M1272.353,481.9102c0,.7529-.0483,1.4117-.1449,1.9764s-.2657,1.0353-.5073,1.4117-.5193.6484-.8333.8157-.6643.251-1.0507.251h-45.0006c-1.1111,0-2.1619-.3242-3.1522-.9725-.9904-.6484-1.4855-1.7882-1.4855-3.4195v-72.4063c0-1.6313.4952-2.7703,1.4855-3.4195.9904-.6484,2.0411-.9725,3.1522-.9725h44.4934c.3865,0,.7367.0845,1.0507.251.314.1673.5676.4392.7609.8157s.3502.847.471,1.4117.1812,1.2653.1812,2.1019c0,.7529-.0604,1.4117-.1812,1.9764s-.2778,1.0257-.471,1.3804c-.1932.3555-.4469.6179-.7609.7843-.314.1673-.6643.251-1.0507.251h-36.6672v25.474h31.4497c.3865,0,.7367.0941,1.0507.2823s.5797.4497.7971.7843c.2174.3355.3744.7948.471,1.3804.0966.5865.1449,1.2767.1449,2.0705,0,.7529-.0483,1.4021-.1449,1.9451-.0966.5438-.2536.983-.471,1.3176-.2174.3355-.4831.5752-.7971.7216-.314.1473-.6643.2196-1.0507.2196h-31.4497v29.0503h37.1744c.3865,0,.7367.0845,1.0507.251.314.1673.5918.4296.8333.7843.2415.3555.4106.8157.5073,1.3804s.1449,1.2653.1449,2.1019Z"/>
  <path class="cls-1" d="M1194.1505,416.2175c0,.7948-.0483,1.4963-.1449,2.1019-.0966.6065-.2415,1.1085-.4348,1.5058-.1932.3982-.4348.6806-.7246.847-.2899.1673-.6039.251-.942.251-.5797,0-1.5459-.3974-2.8986-1.1921-1.3527-.7939-3.1643-1.6723-5.4349-2.6352-2.2706-.9621-4.988-1.8405-8.1523-2.6352-3.1643-.7939-6.9204-1.1921-11.2683-1.1921-5.1692,0-9.8069.8157-13.9132,2.447-4.1063,1.6313-7.5846,3.8901-10.4349,6.7763-2.8503,2.8862-5.0363,6.3162-6.5581,10.29-1.5218,3.9746-2.2826,8.2822-2.2826,12.9252,0,5.1868.8333,9.788,2.5,13.8036,1.6667,4.0156,3.9735,7.4038,6.9204,10.1645,2.9469,2.7607,6.4614,4.8531,10.5436,6.2744,4.0822,1.4222,8.5629,2.1333,13.4422,2.1333,2.8986,0,5.8334-.3033,8.8045-.9098,2.9711-.6057,5.7368-1.5154,8.2972-2.7294v-23.6544h-21.7394c-.8213,0-1.4372-.3547-1.8479-1.0666-.4106-.7111-.616-1.8196-.616-3.3254,0-.7939.0483-1.4745.1449-2.0392s.2536-1.0248.471-1.3804c.2174-.3547.471-.617.7609-.7843.2899-.1664.6522-.251,1.087-.251h29.783c.5314,0,1.0628.0845,1.5942.251.5314.1673,1.0145.4183,1.4493.7529.4348.3355.773.7948,1.0145,1.3804.2415.5865.3623,1.2549.3623,2.0078v30.9327c0,1.0884-.2174,2.0287-.6522,2.8235-.4348.7948-1.3527,1.4954-2.7537,2.1019s-3.2126,1.2653-5.4349,1.9764c-2.2223.7111-4.517,1.3176-6.8842,1.8196-2.3672.5019-4.7585.8784-7.174,1.1294s-4.8068.3765-7.174.3765c-7.2465,0-13.72-.9725-19.4206-2.9176s-10.5195-4.7162-14.4567-8.3135c-3.9373-3.5973-6.9445-7.9057-9.0219-12.9252s-3.116-10.6246-3.116-16.8153c0-6.4408,1.1232-12.276,3.3696-17.5055,2.2464-5.2286,5.4107-9.6834,9.4929-13.3644,4.0822-3.6801,8.9856-6.5349,14.7103-8.5645,5.7247-2.0287,12.0654-3.0431,19.022-3.0431,3.5749,0,6.9325.2728,10.0726.8157,3.1401.5438,5.93,1.1825,8.3697,1.9137,2.4396.732,4.4928,1.5276,6.1595,2.3843,1.6667.8575,2.814,1.559,3.4421,2.1019.628.5438,1.0628,1.1712,1.3044,1.8823.2415.712.3623,1.7359.3623,3.0744Z"/>
  <path class="cls-10" d="M674.3002,475.6526c-21.9991-19.0604-24.3814-52.3457-5.321-74.3448,9.4076-10.8581,22.2809-16.9336,35.5517-18.0145-15.7177-.8625-31.6523,5.2926-42.7579,18.1105-19.0604,21.9991-16.6781,55.2844,5.321,74.3448,11.141,9.6528,25.1764,13.8024,38.7931,12.6934-11.2584-.6178-22.4057-4.8346-31.5869-12.7894Z"/>
  <path class="cls-11" d="M759.827,448.1701c-4.3566,10.0796-11.9645,18.8453-22.3259,24.5556-24.8267,13.6823-56.0445,4.6479-69.7268-20.1788-6.7532-12.2537-7.9689-26.0634-4.4866-38.554-6.0822,14.072-5.825,30.7058,2.1471,45.1712,13.6823,24.8268,44.9,33.8611,69.7268,20.1788,12.573-6.9291,21.0923-18.3566,24.6654-31.1727Z"/>
  <path class="cls-9" d="M656.8153,403.2044c18.5348-26.1554,54.7634-32.333,80.9187-13.7982,12.9095,9.1482,20.9482,22.6075,23.5548,37.0378-.7387-17.3205-9.1927-34.1268-24.4322-44.9261-26.1554-18.5348-62.3839-12.3571-80.9187,13.7982-9.3866,13.2459-12.4312,29.0745-9.7566,43.8809-.5292-12.4065,2.8985-25.0767,10.6339-35.9926Z"/>
  <g>
    <path class="cls-2" d="M131.2346,473.5664C31.8496,387.4577,21.0872,237.0853,107.1959,137.7004c42.5007-49.0533,100.6579-76.5009,160.6114-81.3837-71.0076-3.8965-142.9951,23.9104-193.1665,81.8173C-11.4679,237.5189-.7054,387.8913,98.6795,474.0001c50.3316,43.6081,113.7389,62.355,175.2548,57.345-50.862-2.791-101.2217-21.8413-142.6997-57.7786Z"/>
    <path class="cls-3" d="M517.6173,349.409c-19.682,45.5364-54.0518,85.1373-100.8613,110.9344-112.1593,61.8122-253.1911,20.9978-315.0034-91.1615-30.5086-55.3584-36.0008-117.746-20.2689-174.1748-27.4775,63.5727-26.3153,138.7191,9.6997,204.0689,61.8122,112.1594,202.844,152.9738,315.0034,91.1616,56.801-31.3036,95.2884-82.9292,111.4303-140.8285Z"/>
    <path class="cls-12" d="M52.2433,146.2684C135.9777,28.1067,299.6468.198,417.8084,83.9324c58.3209,41.3287,94.6373,102.1334,106.4133,167.3249-3.3374-78.2485-41.5297-154.1739-110.3767-202.9619C295.6833-35.439,132.0143-7.5303,48.2799,110.6314,5.8742,170.4721-7.8802,241.981,4.2026,308.8713c-2.3905-56.0485,13.0944-113.2885,48.0407-162.6029Z"/>
    <path class="cls-8" d="M106.8264,257.5258c28.5584,44.0001,54.2035,80.5188,82.7619,124.52,58.6723-25.8299,95.1658-53.669,149.5202-51.4958,12.1787,7.1911,27.04,4.1943,32.2652-3.6907,38.8001-28.3365,97.9993-24.423,150.8429-26.8607l-153.1167-104.1438c-49.7544.4222-78.8605.986-110.342,35.4058-32.8599-27.7877-90.3549-11.2747-151.9361,26.2661l.0044-.0009Z"/>
    <path class="cls-6" d="M336.9623,324.4902c2.6004-17.6034,13.1329-26.3657,12.4561-27.1585,9.398,2.6233,18.3618,13.5273,21.1159,23.9822,34.4928-25.5499,79.7674-26.7133,128.8325-26.7857-3.8857-10.5106-5.3104-20.7681-2.7846-28.6064l-122.6027-78.9638c-52.8912,9.4472-91.1916-9.795-119.7627,27.6163-35.6013-23.5622-96.2087-11.0104-134.0431,14.0701l-2.8495,29.6869c25.6451,37.4087,51.2914,74.8183,76.9376,112.2249,45.4624-21.9116,99.0018-50.1012,142.7006-46.0691v.0032Z"/>
    <path class="cls-14" d="M374.3638,185.2791c-26.1547,4.6716-49.4957,2.3635-69.4848,3.4228-19.5299,1.035-36.6881,5.7035-51.0589,23.7134-13.4822-8.4322-30.0758-11.8997-47.518-11.6834-6.0154.0745-12.132.5836-18.253,1.4765-24.4862,3.5721-49.1556,13.2627-68.3053,25.9573l-1.3085.8675-2.2188,30.508c25.6451,37.4087,52.4835,76.6139,78.1286,114.0204,45.5082-21.9326,101.6654-50.5684,144.4412-46.6214,1.2667-8.5744,4.7822-16.6206,7.4437-21.1976,1.3307-2.2881,2.5612-4.0621,3.4445-5.3526.2898-.4234.4818-.7337.6956-1.0685,7.9708,3.0728,16.0279,12.9823,18.4969,22.3536l.6375,2.42,2.1115-1.5647c33.9408-25.1414,78.7195-26.3626,127.756-26.435l2.391-.0041-.7672-2.0774c-3.8176-10.3259-5.1251-20.3292-2.7646-27.6551l.5972-1.8478-124.4647-79.2317ZM373.5675,188.6076l118.3312,75.4305c-4.6481-.2943-9.3497-.5214-14.1361-.605-44.5966-.7789-94.0775,7.9198-128.2141,31.8321l-93.0148-80.8549c13.7845-17.3587,29.4345-21.5525,48.5475-22.5647,19.3455-1.0252,42.0761,1.3588,68.4919-3.2382l-.0057.0002ZM206.3029,203.8841c17.4548-.2151,33.8583,3.3618,46.832,11.9228l91.7929,79.7922c-68.3568-1.9893-114.4674,22.1331-146.8232,43.1879l-74.9885-108.8649c18.5049-11.9753,42.1299-21.2028,65.4721-24.608,5.9637-.87,11.8984-1.3639,17.717-1.4356l-.0023.0055ZM121.6067,233.6025l74.1079,107.3319.0224-.0123.2505.363v.0021c-.1354,1.2817-.2696,2.8464-.4048,4.2287-.724,6.7563-1.2841,13.9756-1.9705,20.5875-.0142.1454-.0283.3005-.0425.445-24.6362-35.9376-49.2724-71.8731-73.9086-107.8149l1.9457-25.131ZM469.4888,266.5623c2.7504-.0276,5.4876-.019,8.2063.0267,5.7309.0963,11.3418.4044,16.865.808-1.8006,7.4709-.6078,16.3843,2.5319,25.5898-47.3531.1071-91.5157,1.5481-125.752,25.7987-3.0772-9.1747-10.0295-18.1074-18.4477-21.8244,31.0859-21.1892,75.3447-29.984,116.602-30.3988h-.0056ZM336.3046,298.6159c3.3833-.0082,6.8699.1002,10.3714.2256-.8721,1.2731-2.1189,3.0719-3.4848,5.4203-2.6384,4.5362-5.607,11.0776-7.059,19.3842-43.4354-3.2589-95.0097,23.5328-139.3109,44.9719.0249-.2472.0489-.5288.0738-.7793.8582-7.4092,1.3821-15.8688,2.2054-23.0529.0959-.9647.1928-2.1042.2885-3.0147,30.8007-20.136,73.604-43.002,136.9174-43.1553l-.0019.0003Z"/>
  </g>
</svg>